<?xml version="1.0" encoding="utf-8"?>
<!-- Generator: Adobe Illustrator 16.0.0, SVG Export Plug-In . SVG Version: 6.00 Build 0)  -->
<!DOCTYPE svg PUBLIC "-//W3C//DTD SVG 1.1//EN" "http://www.w3.org/Graphics/SVG/1.1/DTD/svg11.dtd">
<svg version="1.1" id="Layer_1" xmlns="http://www.w3.org/2000/svg" xmlns:xlink="http://www.w3.org/1999/xlink" x="0px" y="0px"
	 width="20px" height="20.278px" viewBox="340 331.25 20 20.278" enable-background="new 340 331.25 20 20.278"
	 xml:space="preserve">
<path fill="#FFFFFF" d="M346.689,347.632c0,0.083-0.093,0.149-0.209,0.149c-0.133,0.013-0.226-0.054-0.226-0.149
	c0-0.083,0.093-0.149,0.21-0.149C346.584,347.471,346.689,347.538,346.689,347.632z M345.436,347.446
	c-0.028,0.083,0.052,0.178,0.173,0.203c0.105,0.042,0.226,0,0.25-0.083c0.024-0.083-0.052-0.178-0.173-0.215
	C345.581,347.322,345.464,347.364,345.436,347.446L345.436,347.446z M347.218,347.376c-0.117,0.029-0.198,0.107-0.186,0.203
	c0.012,0.083,0.117,0.137,0.238,0.108c0.117-0.029,0.198-0.108,0.186-0.19C347.443,347.417,347.334,347.364,347.218,347.376z
	 M349.871,331.528c-5.593,0-9.871,4.355-9.871,10.091c0,4.586,2.814,8.511,6.834,9.893c0.516,0.095,0.698-0.231,0.698-0.5
	c0-0.257-0.012-1.671-0.012-2.54c0,0-2.822,0.62-3.415-1.232c0,0-0.46-1.204-1.121-1.514c0,0-0.923-0.649,0.064-0.637
	c0,0,1.004,0.083,1.557,1.067c0.883,1.596,2.363,1.137,2.939,0.864c0.093-0.662,0.355-1.121,0.645-1.394
	c-2.254-0.257-4.528-0.592-4.528-4.57c0-1.138,0.307-1.708,0.952-2.436c-0.104-0.269-0.447-1.377,0.105-2.808
	c0.843-0.269,2.782,1.117,2.782,1.117c0.807-0.231,1.673-0.352,2.532-0.352c0.859,0,1.726,0.12,2.532,0.352
	c0,0,1.939-1.39,2.782-1.117c0.553,1.435,0.21,2.539,0.104,2.808c0.646,0.732,1.041,1.303,1.041,2.436
	c0,3.991-2.375,4.309-4.629,4.57c0.371,0.327,0.686,0.947,0.686,1.919c0,1.394-0.013,3.118-0.013,3.457
	c0,0.269,0.186,0.596,0.698,0.501c4.032-1.374,6.766-5.298,6.766-9.885C360,335.883,355.464,331.528,349.871,331.528z
	 M343.919,345.792c-0.052,0.042-0.041,0.137,0.028,0.215c0.064,0.066,0.157,0.095,0.209,0.042c0.052-0.042,0.041-0.137-0.028-0.215
	C344.064,345.768,343.972,345.738,343.919,345.792z M343.484,345.457c-0.028,0.054,0.012,0.12,0.093,0.162
	c0.064,0.041,0.145,0.029,0.173-0.029c0.028-0.054-0.012-0.12-0.093-0.161C343.577,345.403,343.512,345.416,343.484,345.457z
	 M344.791,346.93c-0.065,0.054-0.041,0.178,0.052,0.256c0.093,0.095,0.209,0.107,0.262,0.041c0.052-0.054,0.028-0.178-0.053-0.256
	C344.964,346.875,344.843,346.863,344.791,346.93z M344.331,346.321c-0.064,0.042-0.064,0.149,0,0.244s0.173,0.137,0.226,0.095
	c0.064-0.054,0.064-0.161,0-0.256C344.5,346.309,344.395,346.268,344.331,346.321L344.331,346.321z"/>
</svg>
