<?xml version="1.0" encoding="utf-8"?>
<!-- Generator: Adobe Illustrator 16.0.0, SVG Export Plug-In . SVG Version: 6.00 Build 0)  -->
<!DOCTYPE svg PUBLIC "-//W3C//DTD SVG 1.1//EN" "http://www.w3.org/Graphics/SVG/1.1/DTD/svg11.dtd">
<svg version="1.1" id="Layer_1" xmlns="http://www.w3.org/2000/svg" xmlns:xlink="http://www.w3.org/1999/xlink" x="0px" y="0px"
	 width="20px" height="20.277px" viewBox="0 0 20 20.277" enable-background="new 0 0 20 20.277" xml:space="preserve">
<path fill="#ABFF00" d="M6.69,16.243c0,0.083-0.094,0.148-0.209,0.148c-0.134,0.014-0.227-0.054-0.227-0.148
	c0-0.083,0.093-0.149,0.21-0.149C6.585,16.082,6.69,16.15,6.69,16.243z M5.437,16.057C5.409,16.14,5.489,16.236,5.61,16.26
	c0.104,0.042,0.226,0,0.25-0.083c0.023-0.083-0.053-0.178-0.174-0.215C5.582,15.933,5.465,15.976,5.437,16.057L5.437,16.057z
	 M7.219,15.988c-0.117,0.028-0.198,0.106-0.186,0.203c0.012,0.083,0.117,0.137,0.237,0.107c0.117-0.028,0.198-0.107,0.187-0.189
	C7.444,16.029,7.335,15.976,7.219,15.988z M9.872,0.139c-5.593,0-9.871,4.355-9.871,10.092c0,4.586,2.814,8.511,6.834,9.893
	c0.516,0.095,0.698-0.23,0.698-0.5c0-0.257-0.013-1.671-0.013-2.54c0,0-2.821,0.62-3.414-1.231c0,0-0.461-1.204-1.121-1.515
	c0,0-0.924-0.648,0.063-0.637c0,0,1.004,0.083,1.558,1.067c0.883,1.596,2.362,1.137,2.938,0.863C7.638,14.969,7.9,14.51,8.19,14.238
	c-2.255-0.257-4.528-0.592-4.528-4.57c0-1.138,0.307-1.708,0.952-2.436C4.51,6.962,4.167,5.855,4.719,4.423
	C5.562,4.155,7.501,5.54,7.501,5.54c0.807-0.23,1.673-0.352,2.532-0.352c0.858,0,1.726,0.119,2.532,0.352
	c0,0,1.938-1.39,2.781-1.117c0.554,1.436,0.21,2.539,0.104,2.809c0.646,0.731,1.041,1.303,1.041,2.436
	c0,3.991-2.375,4.31-4.629,4.57c0.371,0.327,0.686,0.947,0.686,1.919c0,1.394-0.013,3.118-0.013,3.457
	c0,0.269,0.186,0.596,0.698,0.501C17.266,18.74,20,14.817,20,10.23C20.001,4.494,15.465,0.139,9.872,0.139z M3.92,14.404
	c-0.052,0.042-0.041,0.137,0.028,0.215c0.063,0.066,0.157,0.095,0.209,0.042c0.052-0.042,0.041-0.137-0.028-0.215
	C4.065,14.379,3.973,14.349,3.92,14.404z M3.485,14.069c-0.028,0.054,0.012,0.12,0.093,0.162c0.063,0.041,0.145,0.028,0.173-0.029
	c0.028-0.054-0.012-0.12-0.093-0.161C3.578,14.014,3.513,14.028,3.485,14.069z M4.792,15.541c-0.065,0.054-0.041,0.178,0.052,0.256
	c0.093,0.096,0.209,0.107,0.263,0.041c0.052-0.054,0.027-0.178-0.054-0.256C4.965,15.487,4.844,15.474,4.792,15.541z M4.332,14.932
	c-0.064,0.042-0.064,0.149,0,0.244c0.063,0.096,0.173,0.138,0.226,0.096c0.064-0.055,0.064-0.161,0-0.257
	C4.501,14.92,4.396,14.879,4.332,14.932L4.332,14.932z"/>
</svg>
