<?xml version="1.0" encoding="utf-8"?>
<!-- Generator: Adobe Illustrator 16.0.0, SVG Export Plug-In . SVG Version: 6.00 Build 0)  -->
<!DOCTYPE svg PUBLIC "-//W3C//DTD SVG 1.1//EN" "http://www.w3.org/Graphics/SVG/1.1/DTD/svg11.dtd">
<svg version="1.1" id="Layer_1" xmlns="http://www.w3.org/2000/svg" xmlns:xlink="http://www.w3.org/1999/xlink" x="0px" y="0px"
	 width="20px" height="20.277px" viewBox="0 0 20 20.277" enable-background="new 0 0 20 20.277" xml:space="preserve">
<path fill="#FFFFFF" d="M6.69,16.242c0,0.083-0.094,0.148-0.209,0.148c-0.134,0.014-0.227-0.054-0.227-0.148
	c0-0.083,0.093-0.149,0.21-0.149C6.585,16.081,6.69,16.149,6.69,16.242z M5.437,16.056c-0.027,0.083,0.053,0.179,0.174,0.203
	c0.104,0.042,0.226,0,0.25-0.083c0.023-0.083-0.053-0.178-0.174-0.215C5.582,15.932,5.465,15.975,5.437,16.056L5.437,16.056z
	 M7.219,15.987c-0.117,0.028-0.198,0.106-0.186,0.203c0.012,0.083,0.117,0.137,0.237,0.107c0.117-0.028,0.198-0.107,0.187-0.189
	C7.444,16.028,7.335,15.975,7.219,15.987z M9.872,0.138c-5.593,0-9.871,4.355-9.871,10.092c0,4.586,2.814,8.511,6.834,9.893
	c0.516,0.095,0.698-0.23,0.698-0.5c0-0.257-0.013-1.671-0.013-2.54c0,0-2.821,0.62-3.414-1.231c0,0-0.461-1.204-1.121-1.515
	c0,0-0.924-0.648,0.063-0.637c0,0,1.004,0.083,1.558,1.067c0.883,1.596,2.362,1.137,2.938,0.863
	c0.093-0.662,0.355-1.121,0.646-1.394c-2.255-0.257-4.528-0.592-4.528-4.57c0-1.138,0.307-1.708,0.952-2.436
	C4.51,6.961,4.167,5.854,4.719,4.422c0.843-0.269,2.782,1.117,2.782,1.117c0.807-0.23,1.673-0.352,2.532-0.352
	c0.858,0,1.726,0.119,2.532,0.352c0,0,1.938-1.39,2.781-1.117c0.554,1.436,0.21,2.539,0.104,2.809
	c0.646,0.731,1.041,1.303,1.041,2.436c0,3.991-2.375,4.31-4.629,4.57c0.371,0.327,0.686,0.947,0.686,1.919
	c0,1.394-0.013,3.118-0.013,3.457c0,0.269,0.186,0.596,0.698,0.501C17.266,18.74,20,14.816,20,10.229
	C20.001,4.493,15.465,0.138,9.872,0.138z M3.92,14.403c-0.052,0.042-0.041,0.137,0.028,0.215c0.063,0.066,0.157,0.095,0.209,0.042
	c0.052-0.042,0.041-0.137-0.028-0.215C4.065,14.378,3.973,14.348,3.92,14.403z M3.485,14.068c-0.028,0.054,0.012,0.12,0.093,0.162
	c0.063,0.041,0.145,0.028,0.173-0.029c0.028-0.054-0.012-0.12-0.093-0.161C3.578,14.013,3.513,14.027,3.485,14.068z M4.792,15.54
	c-0.065,0.054-0.041,0.178,0.052,0.256c0.093,0.096,0.209,0.107,0.263,0.041c0.052-0.054,0.027-0.178-0.054-0.256
	C4.965,15.486,4.844,15.473,4.792,15.54z M4.332,14.931c-0.064,0.042-0.064,0.149,0,0.244c0.063,0.096,0.173,0.138,0.226,0.096
	c0.064-0.055,0.064-0.161,0-0.257C4.501,14.919,4.396,14.878,4.332,14.931L4.332,14.931z"/>
</svg>
