<svg xmlns="http://www.w3.org/2000/svg" xmlns:xlink="http://www.w3.org/1999/xlink" width="151.154" height="151.026" viewBox="0 0 151.154 151.026"><defs><style>.a{fill:url(#a);}.b{fill:#0e2307;}</style><linearGradient id="a" x1="0.711" y1="0.5" x2="0.891" y2="0.5" gradientUnits="objectBoundingBox"><stop offset="0" stop-color="#143109"/><stop offset="1" stop-color="#143109" stop-opacity="0"/></linearGradient></defs><g transform="translate(-1163.56 -665.748)"><g transform="translate(8 25)"><path class="a" d="M819.015,774.407a83.339,83.339,0,0,1,13.618,1.2,71.156,71.156,0,0,0,0,11.568,143.334,143.334,0,0,1,20.34,8.387c1.639-.1-.192,1.253,9.158-7.9a88.271,88.271,0,0,1,9.351,7.9c2.853,3.552,6.362,6.844,9.543,11.279-1.717,1.787-8.483,7.808-7.519,9.254a122.079,122.079,0,0,1,7.519,19.569c.412.228.482.964,12.436.675.675,5.784,1.253,10.613,1.253,13.3a84.8,84.8,0,0,1-1.253,13.688c-2.036.034-9.447,0-11.278,0-.92,2.276-6.742,17.48-9.158,20.629.174.24.193,1.542,8,8.965-1.923,1.534-5.495,6.651-8,9.64a91.732,91.732,0,0,1-10.8,9.351c-1.852-1.612-8-7.423-8.869-7.809-4.775,2.177-14.171,6.652-20.34,8.291-.115.428-.772,2.121-.386,11.761-11.568,1.446-12.532,1.253-12.532,1.253a84.771,84.771,0,0,1-14.749-1.253c.029-2.815.578-10.508-.578-11.761-3.956-1.352-7.9-1.832-19.569-8.291-1.446,0-3.567,2.41-8.965,7.809a100.659,100.659,0,0,1-19.631-18.8c7.1-6.652,8.353-8,7.871-9.447-3.3-7.984-4.3-8.767-7.871-19.5-1.645-2.187-6.3-.409-11.181-.705-.037,0-.229-.016-.421-.035-1.446-3.374-1.446-11.414-1.446-13.592a87.529,87.529,0,0,1,.964-13.785c3.861.006,9.447.771,12.02-.482a129.219,129.219,0,0,1,8.32-20.148c-1.446-2.024-5.658-5.77-7.9-8.965,5.977-7.133,10.025-12.146,18.617-18.8,1.913,1.749,7.314,7.23,9.338,7.9,4.064-1.969,13.978-6.845,20.051-8.387.386-.482.964-6.748.675-11.568C810.076,774.157,819.015,774.407,819.015,774.407Z" transform="translate(412 -133.643)"/><circle class="b" cx="42.119" cy="42.119" r="42.119" transform="translate(1189.189 674.299)"/></g></g></svg>