<svg xmlns="http://www.w3.org/2000/svg" xmlns:xlink="http://www.w3.org/1999/xlink" width="182.459" height="184.062" viewBox="0 0 182.459 184.062"><defs><style>.a{fill:url(#a);}.b{fill:#0e2307;}</style><linearGradient id="a" x1="0.657" y1="0.202" x2="0.805" y2="0.126" gradientUnits="objectBoundingBox"><stop offset="0" stop-color="#143109"/><stop offset="1" stop-color="#143109" stop-opacity="0"/></linearGradient></defs><g transform="matrix(0.719, 0.695, -0.695, 0.719, 197.482, -1521.542)"><path class="a" d="M1370.8,500.551c5.479-.194,16.594-6.684,16.948-12.435.117-1.9-.053-7.594-.335-14.457-.564-13.683-1.585-31.92-1.585-31.92a12.4,12.4,0,0,1,3.031-4.6,40.7,40.7,0,0,1,3.334-2.475l15.206-.354s5.385-2.372,6.969-4.076,2.983-1.43,3.084-8.2,0-11.518,0-11.518l-1.688-6.825,3.249-65.215h-15.762l-1.051,19.308-1.445-19.308h-54.444l-.788,18.06-1.445-18.06h-4.663l-1.51,18.98-1.445-18.98h-14.58l3.809,65.215-2.1,6.83.591,14.514s-.394,1.576,3.087,4.86a29.856,29.856,0,0,0,6.567,4.794h14.843s1.248-.131,4.334,3.743,2.43,5.123,2.167,18.126-1.4,24.676-1.243,30.971S1365.324,500.745,1370.8,500.551Z" transform="translate(-326 815)"/><path class="b" d="M1.995-.631l88.453.06h1.644l1.741,6.664H0Z" transform="translate(997.731 1219.392)"/></g></svg>