<?xml version="1.0" encoding="utf-8"?>
<!-- Generator: Adobe Illustrator 16.0.0, SVG Export Plug-In . SVG Version: 6.00 Build 0)  -->
<!DOCTYPE svg PUBLIC "-//W3C//DTD SVG 1.1//EN" "http://www.w3.org/Graphics/SVG/1.1/DTD/svg11.dtd">
<svg version="1.1" id="Layer_1" xmlns="http://www.w3.org/2000/svg" xmlns:xlink="http://www.w3.org/1999/xlink" x="0px" y="0px"
	 width="20.833px" height="21.083px" viewBox="0 0 20.833 21.083" enable-background="new 0 0 20.833 21.083" xml:space="preserve">
<path fill="#ABFF00" d="M4.893,20.541H0.749V7.189h4.145V20.541z M2.819,5.365c-1.326,0-2.402-1.098-2.402-2.424
	s1.076-2.4,2.402-2.4s2.398,1.074,2.4,2.4C5.219,4.269,4.143,5.365,2.819,5.365z M20.413,20.541h-4.137v-6.502
	c0-1.549-0.031-3.534-2.156-3.534c-2.156,0-2.486,1.685-2.486,3.424v6.612H7.491V7.189h3.979v1.819h0.057
	c0.555-1.049,1.906-2.155,3.924-2.155c4.197,0,4.967,2.764,4.967,6.354v7.335L20.413,20.541L20.413,20.541z"/>
</svg>
