<?xml version="1.0" encoding="utf-8"?>
<!-- Generator: Adobe Illustrator 16.0.0, SVG Export Plug-In . SVG Version: 6.00 Build 0)  -->
<!DOCTYPE svg PUBLIC "-//W3C//DTD SVG 1.1//EN" "http://www.w3.org/Graphics/SVG/1.1/DTD/svg11.dtd">
<svg version="1.1" id="Layer_1" xmlns="http://www.w3.org/2000/svg" xmlns:xlink="http://www.w3.org/1999/xlink" x="0px" y="0px"
	 width="20.833px" height="21.083px" viewBox="339.583 295.667 20.833 21.083"
	 enable-background="new 339.583 295.667 20.833 21.083" xml:space="preserve">
<path fill="#FFFFFF" d="M344.478,316.262h-4.146V302.91h4.146V316.262z M342.402,301.087c-1.326,0-2.402-1.098-2.402-2.424
	s1.076-2.401,2.402-2.401s2.4,1.075,2.401,2.401C344.804,299.99,343.728,301.087,342.402,301.087z M359.996,316.262h-4.137v-6.501
	c0-1.549-0.031-3.535-2.156-3.535c-2.156,0-2.486,1.684-2.486,3.424v6.612h-4.142V302.91h3.978v1.82h0.057
	c0.555-1.049,1.906-2.156,3.924-2.156c4.197,0,4.967,2.764,4.967,6.354v7.335H359.996z"/>
</svg>
